<?xml version="1.0" standalone="no"?><!DOCTYPE svg PUBLIC "-//W3C//DTD SVG 1.1//EN" "http://www.w3.org/Graphics/SVG/1.1/DTD/svg11.dtd"><svg t="1711460301742" class="icon" viewBox="0 0 1025 1024" version="1.1" xmlns="http://www.w3.org/2000/svg" p-id="7809" xmlns:xlink="http://www.w3.org/1999/xlink" width="200.1953125" height="200"><path d="M513.121 0c-282.772 0-512 229.228-512 512s229.228 512 512 512c282.768 0 512-229.228 512-512S795.89 0 513.121 0z m-30.505 192.077h61.015v270.715h-61.015V192.077z m30.505 607.493c-148.045 0-268.057-120.013-268.057-268.058 0-115.66 73.252-214.21 175.897-251.791v62.08c-70.282 34.202-118.727 106.291-118.727 189.711 0 116.475 94.423 210.888 210.887 210.888 116.475 0 210.888-94.413 210.888-210.888 0-83.415-48.44-155.51-118.723-189.716V279.72c102.641 37.58 175.893 136.13 175.893 251.791 0 148.045-120.013 268.058-268.058 268.058z" fill="#F81F03" p-id="7810"></path></svg>