<?xml version="1.0" standalone="no"?><!DOCTYPE svg PUBLIC "-//W3C//DTD SVG 1.1//EN" "http://www.w3.org/Graphics/SVG/1.1/DTD/svg11.dtd"><svg t="1713197392264" class="icon" viewBox="0 0 1024 1024" version="1.1" xmlns="http://www.w3.org/2000/svg" p-id="4301" xmlns:xlink="http://www.w3.org/1999/xlink" width="200" height="200"><path d="M879 790l-8.8-478.7c-0.4-19.6-16.4-35.3-36-35.3H600v-19c0-19.9-16.1-36-36-36H302c-19.9 0-36 16.1-36 36v105l-84.2-0.9h-0.4c-11.4 0-22.1 5.4-28.9 14.5-6.9 9.2-8.9 21.2-5.5 32.2l122 393.8c4.7 15.1 18.6 25.4 34.4 25.4h539.5c11.5 0 22.3-5.5 29.1-14.8 1.8-2.5 3.2-5.1 4.3-7.9 1.8-4.4 2.7-9.2 2.7-14.3zM338 293h190v19c0 19.9 16.1 36 36 36h234.8l3.7 200-50.2-156c-4.7-14.7-18.4-24.8-33.9-25L338 362.8V293z m-8.1 462l-99.5-321.4 461.3 5.1L793.5 755H329.9z" p-id="4302"></path></svg>