<?xml version="1.0" standalone="no"?><!DOCTYPE svg PUBLIC "-//W3C//DTD SVG 1.1//EN" "http://www.w3.org/Graphics/SVG/1.1/DTD/svg11.dtd"><svg t="1710406168796" class="icon" viewBox="0 0 1024 1024" version="1.1" xmlns="http://www.w3.org/2000/svg" p-id="15635" xmlns:xlink="http://www.w3.org/1999/xlink" width="200" height="200"><path d="M512.385 2.274c-280.025 0-507.027 227.002-507.027 507.026s227.003 507.028 507.027 507.028c280.026 0 507.027-227.004 507.027-507.028 0-280.025-227.002-507.026-507.027-507.026zM543.614 752.742c-10.201 9.051-21.97 13.58-35.311 13.58-13.808 0-25.861-4.469-36.161-13.41-10.298-8.942-15.435-21.446-15.435-37.519 0-14.258 4.981-26.258 14.927-35.988 9.959-9.733 22.182-14.598 36.67-14.598 14.258 0 26.256 4.865 35.988 14.598 9.733 9.731 14.599 21.729 14.599 35.988 0 15.845-5.092 28.295-15.278 37.351zM670.426 438.34c-7.806 14.486-17.101 27.021-27.839 37.519-10.75 10.526-30.048 28.236-57.889 53.134-7.696 7.018-13.865 13.186-18.505 18.505-4.639 5.318-8.092 10.185-10.355 14.599-2.263 4.414-4.017 8.827-5.263 13.241-1.245 4.386-3.111 12.137-5.602 23.259-4.301 23.54-17.754 35.311-40.403 35.311-11.786 0-21.674-3.847-29.71-11.545-8.049-7.695-12.052-19.125-12.052-34.289 0-19.014 2.943-35.481 8.813-49.404 5.886-13.921 13.694-26.143 23.427-36.669s22.863-23.030 39.385-37.519c14.487-12.675 24.97-22.237 31.42-28.689 6.437-6.45 11.871-13.637 16.298-21.561 4.414-7.923 6.607-16.494 6.607-25.805 0-18.106-6.735-33.386-20.203-45.837-13.468-12.422-30.839-18.647-52.117-18.647-24.899 0-43.232 6.283-54.99 18.844-11.783 12.563-21.729 31.039-29.891 55.514-7.711 25.549-22.31 38.337-43.813 38.337-12.676 0-23.358-4.468-32.070-13.41s-13.057-18.62-13.043-29.030c0-21.504 6.89-43.291 20.713-65.359 13.793-22.068 33.938-40.349 60.421-54.835 26.483-14.486 57.365-21.727 92.691-21.727 32.819 0 61.78 6.053 86.917 18.164 25.126 12.108 44.534 28.575 58.229 49.402 13.698 20.822 20.544 43.458 20.544 67.904 0.002 19.242-3.904 36.106-11.715 50.592z" fill="#272636" p-id="15636"></path></svg>