<?xml version="1.0" standalone="no"?><!DOCTYPE svg PUBLIC "-//W3C//DTD SVG 1.1//EN" "http://www.w3.org/Graphics/SVG/1.1/DTD/svg11.dtd"><svg t="1713194719099" class="icon" viewBox="0 0 1024 1024" version="1.1" xmlns="http://www.w3.org/2000/svg" p-id="24021" xmlns:xlink="http://www.w3.org/1999/xlink" width="200" height="200"><path d="M701.36 620.8H211.3a44.72 44.72 0 0 1-44.37-44.93V240.12a44.71 44.71 0 0 1 44.37-45H593a29.87 29.87 0 0 0 29.68-30 29.84 29.84 0 0 0-29.62-30H211.3a104.55 104.55 0 0 0-103.75 104.99v335.76A104.55 104.55 0 0 0 211.3 680.93h239.17a31.46 31.46 0 0 0-0.37 4.65V829H308.53a29.86 29.86 0 0 0-29.68 30 29.86 29.86 0 0 0 29.68 30.05h342.55A29.87 29.87 0 0 0 680.77 859a29.87 29.87 0 0 0-29.69-30h-141.6V685.58a31.43 31.43 0 0 0-0.34-4.65h192.25a29.87 29.87 0 0 0 29.69-30 29.87 29.87 0 0 0-29.66-30.07z" fill="#4A4A4A" p-id="24022"></path><path d="M651.08 896.66H308.53a37.71 37.71 0 0 1 0-75.41h133.93V688.52H211.31a112.19 112.19 0 0 1-111.4-112.71V240.05a112.19 112.19 0 0 1 111.4-112.71H593a37.71 37.71 0 0 1 0 75.41H211.31a37.07 37.07 0 0 0-36.73 37.31v335.75a37.07 37.07 0 0 0 36.73 37.28h490.06a37.71 37.71 0 0 1 0 75.41H517.13v132.73h134a37.72 37.72 0 0 1 0 75.43z m-342.55-60.13a22.4 22.4 0 0 0 0 44.8h342.55a22.4 22.4 0 0 0 0-44.8H501.77V685.46a24 24 0 0 0-0.28-3.49l-1.34-8.81H701.3a22.41 22.41 0 0 0 0-44.81H211.24a52.35 52.35 0 0 1-52-52.57V240a52.36 52.36 0 0 1 52-52.61H593a22.4 22.4 0 0 0 0-44.8H211.24A96.85 96.85 0 0 0 115.15 240v335.77a96.85 96.85 0 0 0 96.09 97.41h248.08L458 682a22.6 22.6 0 0 0-0.27 3.49v151.06z" fill="#4A4A4A" p-id="24023"></path><path d="M890.83 135h-205.5a29.86 29.86 0 0 0-29.68 30v347a29.86 29.86 0 0 0 29.68 30.06h73V859a29.86 29.86 0 0 0 29.68 30.05A29.86 29.86 0 0 0 817.75 859V542.12h73.08a29.87 29.87 0 0 0 29.69-30V165.23A29.88 29.88 0 0 0 891 135z m-29.68 60.14v78.65H715v-78.63zM715 482V333.94h43.36v52.37A29.86 29.86 0 0 0 788 416.36a29.86 29.86 0 0 0 29.68-30.05v-52.37h43.43V482z" fill="#4A4A4A" p-id="24024"></path><path d="M685.33 127.37h205.5a37.58 37.58 0 0 1 37.34 37.7v347a37.59 37.59 0 0 1-37.34 37.71h-65.42v309.1a37.34 37.34 0 1 1-74.68 0V549.61h-65.4a37.57 37.57 0 0 1-37.33-37.7V165.23a37.57 37.57 0 0 1 37.3-37.86z m205.5 407a22.26 22.26 0 0 0 22-22.4V165.23a22.26 22.26 0 0 0-22-22.41h-205.5a22.25 22.25 0 0 0-22 22.41v347a22.25 22.25 0 0 0 22 22.41H766v324.53a22 22 0 1 0 44.07 0v-324.4z m-183.62-347h161.47v94H707.21z m146.17 15.31H722.51v63.34h130.87zM707.21 326.2h58.67v60a22 22 0 1 0 44.07 0v-60h58.72v163.37H707.21z m43.37 15.31h-28.07v132.76h130.87V341.51h-28.13v44.71a37.34 37.34 0 1 1-74.67 0z" fill="#4A4A4A" p-id="24025"></path></svg>