<?xml version="1.0" standalone="no"?><!DOCTYPE svg PUBLIC "-//W3C//DTD SVG 1.1//EN" "http://www.w3.org/Graphics/SVG/1.1/DTD/svg11.dtd"><svg t="1711451528718" class="icon" viewBox="0 0 1024 1024" version="1.1" xmlns="http://www.w3.org/2000/svg" p-id="1790" xmlns:xlink="http://www.w3.org/1999/xlink" width="200" height="200"><path d="M512 64.45C264.82 64.45 64.45 264.82 64.45 512S264.82 959.55 512 959.55 959.55 759.18 959.55 512 759.18 64.45 512 64.45zM462 383.6v286a43.82 43.82 0 0 1-43.81 43.81 43.82 43.82 0 0 1-43.82-43.81V354.36a43.82 43.82 0 0 1 43.82-43.81A43.82 43.82 0 0 1 462 354.36z m187.73 286a43.82 43.82 0 0 1-43.82 43.81 43.82 43.82 0 0 1-43.81-43.81V354.36a43.82 43.82 0 0 1 43.81-43.81 43.82 43.82 0 0 1 43.82 43.81z" fill="#48E1AA" p-id="1791"></path><path d="M948.31 411.91C869.2 303.38 741.09 232.84 596.5 232.84c-240.28 0-435.06 194.79-435.06 435.06a434.19 434.19 0 0 0 28.28 154.64A446.23 446.23 0 0 0 512 959.55c247.18 0 447.55-200.37 447.55-447.55a448.48 448.48 0 0 0-11.24-100.09zM462 383.6v286a43.82 43.82 0 0 1-43.81 43.81 43.82 43.82 0 0 1-43.82-43.81V354.36a43.82 43.82 0 0 1 43.82-43.81A43.82 43.82 0 0 1 462 354.36z m187.73 286a43.82 43.82 0 0 1-43.82 43.81 43.82 43.82 0 0 1-43.81-43.81V354.36a43.82 43.82 0 0 1 43.81-43.81 43.82 43.82 0 0 1 43.82 43.81z" fill="#35D895" p-id="1792"></path><path d="M686.56 419.9q-18.66 0-36.88 1.68v248.06a43.82 43.82 0 0 1-43.82 43.81 43.82 43.82 0 0 1-43.81-43.81V439.52A401.08 401.08 0 0 0 462 488.3v181.34a43.82 43.82 0 0 1-43.81 43.81 43.82 43.82 0 0 1-43.82-43.81v-101.4a403.53 403.53 0 0 0-82.81 333.31 445.45 445.45 0 0 0 220.49 58c242.38 0 439.75-192.68 447.32-433.22A401.33 401.33 0 0 0 686.56 419.9z" fill="#1DCE75" p-id="1793"></path><path d="M798.22 588.67A401.62 401.62 0 0 0 649.68 617v52.68a43.82 43.82 0 0 1-43.82 43.81 43.82 43.82 0 0 1-43.81-43.81v-4.48C472.94 729.77 411.33 830 398.11 944.93A448.23 448.23 0 0 0 512 959.55c211 0 387.85-146 435.14-342.45a401.72 401.72 0 0 0-148.92-28.43z" fill="#05C46D" p-id="1794"></path><path d="M396.82 170.5c7.56 11.34-32.18 25.35-74.11 53.29S252.55 283 245 271.67s15.62-50.21 57.55-78.15 86.72-34.36 94.27-23.02z" fill="#FFFFFF" p-id="1795"></path></svg>